{
	"asset":{
		"generator":"Khronos glTF Blender I/O v3.5.30",
		"version":"2.0"
	},
	"extensionsUsed":[
		"KHR_materials_specular",
		"KHR_materials_ior"
	],
	"scene":0,
	"scenes":[
		{
			"name":"Scene",
			"nodes":[
				0
			]
		}
	],
	"nodes":[
		{
			"mesh":0,
			"name":"Cube",
			"translation":[
				-11.018880844116211,
				1.2554283142089844,
				11.019757270812988
			]
		}
	],
	"materials":[
		{
			"doubleSided":true,
			"name":"White Squares",
			"pbrMetallicRoughness":{
				"metallicFactor":0,
				"roughnessFactor":0.5
			}
		},
		{
			"doubleSided":true,
			"name":"Black Squares",
			"pbrMetallicRoughness":{
				"baseColorFactor":[
					0.0028969496488571167,
					0.0028969496488571167,
					0.0028969496488571167,
					1
				],
				"metallicFactor":0,
				"roughnessFactor":0.5
			}
		},
		{
			"doubleSided":true,
			"extensions":{
				"KHR_materials_specular":{
					"specularColorFactor":[
						0.43618234485214,
						0.43618234485214,
						0.43618234485214
					]
				},
				"KHR_materials_ior":{
					"ior":1.4500000476837158
				}
			},
			"name":"Highlight",
			"pbrMetallicRoughness":{
				"baseColorFactor":[
					0.06503964960575104,
					0.19425147771835327,
					0.3505551517009735,
					1
				],
				"metallicFactor":0.9740932583808899
			}
		}
	],
	"meshes":[
		{
			"name":"Cube",
			"primitives":[
				{
					"attributes":{
						"POSITION":0,
						"TEXCOORD_0":1,
						"NORMAL":2
					},
					"indices":3,
					"material":0
				},
				{
					"attributes":{
						"POSITION":4,
						"TEXCOORD_0":5,
						"NORMAL":6
					},
					"indices":7,
					"material":1
				},
				{
					"attributes":{
						"POSITION":8,
						"TEXCOORD_0":9,
						"NORMAL":10
					},
					"indices":11,
					"material":2
				}
			]
		}
	],
	"accessors":[
		{
			"bufferView":0,
			"componentType":5126,
			"count":2871,
			"max":[
				23.956993103027344,
				0.14342620968818665,
				1.8268184661865234
			],
			"min":[
				-1.8268184661865234,
				-1.2065916061401367,
				-23.869787216186523
			],
			"type":"VEC3"
		},
		{
			"bufferView":1,
			"componentType":5126,
			"count":2871,
			"type":"VEC2"
		},
		{
			"bufferView":2,
			"componentType":5126,
			"count":2871,
			"type":"VEC3"
		},
		{
			"bufferView":3,
			"componentType":5123,
			"count":8031,
			"type":"SCALAR"
		},
		{
			"bufferView":4,
			"componentType":5126,
			"count":2727,
			"max":[
				23.956993103027344,
				0.14342620968818665,
				1.8268184661865234
			],
			"min":[
				-1.8268184661865234,
				-1.2065916061401367,
				-23.869787216186523
			],
			"type":"VEC3"
		},
		{
			"bufferView":5,
			"componentType":5126,
			"count":2727,
			"type":"VEC2"
		},
		{
			"bufferView":6,
			"componentType":5126,
			"count":2727,
			"type":"VEC3"
		},
		{
			"bufferView":7,
			"componentType":5123,
			"count":7632,
			"type":"SCALAR"
		},
		{
			"bufferView":8,
			"componentType":5126,
			"count":296,
			"max":[
				23.956993103027344,
				0.14342620968818665,
				1.8268184661865234
			],
			"min":[
				-1.8268184661865234,
				-1.2065916061401367,
				-23.869787216186523
			],
			"type":"VEC3"
		},
		{
			"bufferView":9,
			"componentType":5126,
			"count":296,
			"type":"VEC2"
		},
		{
			"bufferView":10,
			"componentType":5126,
			"count":296,
			"type":"VEC3"
		},
		{
			"bufferView":11,
			"componentType":5123,
			"count":540,
			"type":"SCALAR"
		}
	],
	"bufferViews":[
		{
			"buffer":0,
			"byteLength":34452,
			"byteOffset":0,
			"target":34962
		},
		{
			"buffer":0,
			"byteLength":22968,
			"byteOffset":34452,
			"target":34962
		},
		{
			"buffer":0,
			"byteLength":34452,
			"byteOffset":57420,
			"target":34962
		},
		{
			"buffer":0,
			"byteLength":16062,
			"byteOffset":91872,
			"target":34963
		},
		{
			"buffer":0,
			"byteLength":32724,
			"byteOffset":107936,
			"target":34962
		},
		{
			"buffer":0,
			"byteLength":21816,
			"byteOffset":140660,
			"target":34962
		},
		{
			"buffer":0,
			"byteLength":32724,
			"byteOffset":162476,
			"target":34962
		},
		{
			"buffer":0,
			"byteLength":15264,
			"byteOffset":195200,
			"target":34963
		},
		{
			"buffer":0,
			"byteLength":3552,
			"byteOffset":210464,
			"target":34962
		},
		{
			"buffer":0,
			"byteLength":2368,
			"byteOffset":214016,
			"target":34962
		},
		{
			"buffer":0,
			"byteLength":3552,
			"byteOffset":216384,
			"target":34962
		},
		{
			"buffer":0,
			"byteLength":1080,
			"byteOffset":219936,
			"target":34963
		}
	],
	"buffers":[
		{
			"byteLength":221016,
			"uri":"data:application/octet-stream;base64,"
		}
	]
}
