{
    "asset" : {
        "generator" : "Khronos glTF Blender I/O v1.6.16",
        "version" : "2.0"
    },
    "scene" : 0,
    "scenes" : [
        {
            "name" : "Scene",
            "nodes" : [
                0
            ]
        }
    ],
    "nodes" : [
        {
            "mesh" : 0,
            "name" : "Knight",
            "scale" : [
                0.014999999664723873,
                0.006850000005215406,
                0.014884603209793568
            ]
        }
    ],
    "materials" : [
        {
            "doubleSided" : true,
            "name" : "Material",
            "pbrMetallicRoughness" : {
                "baseColorFactor" : [
                    0.011134919710457325,
                    0.011134919710457325,
                    0.011134919710457325,
                    1
                ],
                "metallicFactor" : 0,
                "roughnessFactor" : 0.5
            }
        }
    ],
    "meshes" : [
        {
            "name" : "Cylinder.002",
            "primitives" : [
                {
                    "attributes" : {
                        "POSITION" : 0,
                        "NORMAL" : 1,
                        "TEXCOORD_0" : 2
                    },
                    "indices" : 3,
                    "material" : 0
                }
            ]
        }
    ],
    "accessors" : [
        {
            "bufferView" : 0,
            "componentType" : 5126,
            "count" : 74263,
            "max" : [
                1.1693179607391357,
                8.2391357421875,
                0.8500008583068848
            ],
            "min" : [
                -0.9830039739608765,
                0.023790214210748672,
                -0.8500008583068848
            ],
            "type" : "VEC3"
        },
        {
            "bufferView" : 1,
            "componentType" : 5126,
            "count" : 74263,
            "type" : "VEC3"
        },
        {
            "bufferView" : 2,
            "componentType" : 5126,
            "count" : 74263,
            "type" : "VEC2"
        },
        {
            "bufferView" : 3,
            "componentType" : 5125,
            "count" : 117216,
            "type" : "SCALAR"
        }
    ],
    "bufferViews" : [
        {
            "buffer" : 0,
            "byteLength" : 891156,
            "byteOffset" : 0
        },
        {
            "buffer" : 0,
            "byteLength" : 891156,
            "byteOffset" : 891156
        },
        {
            "buffer" : 0,
            "byteLength" : 594104,
            "byteOffset" : 1782312
        },
        {
            "buffer" : 0,
            "byteLength" : 468864,
            "byteOffset" : 2376416
        }
    ],
    "buffers" : [
        {
            "byteLength" : 2845280,
            "uri" : "data:application/octet-stream;base64,"
        }
    ]
}
