{
    "asset" : {
        "generator" : "Khronos glTF Blender I/O v1.6.16",
        "version" : "2.0"
    },
    "scene" : 0,
    "scenes" : [
        {
            "name" : "Scene",
            "nodes" : [
                0
            ]
        }
    ],
    "nodes" : [
        {
            "mesh" : 0,
            "name" : "Pawn",
            "scale" : [
                0.8162747025489807,
                0.8162747025489807,
                0.8162747025489807
            ]
        }
    ],
    "materials" : [
        {
            "doubleSided" : true,
            "name" : "Material",
            "pbrMetallicRoughness" : {
                "baseColorFactor" : [
                    0.011134919710457325,
                    0.011134919710457325,
                    0.011134919710457325,
                    1
                ],
                "metallicFactor" : 0,
                "roughnessFactor" : 0.5
            }
        }
    ],
    "meshes" : [
        {
            "name" : "Sphere.001",
            "primitives" : [
                {
                    "attributes" : {
                        "POSITION" : 0,
                        "NORMAL" : 1,
                        "TEXCOORD_0" : 2
                    },
                    "indices" : 3,
                    "material" : 0
                }
            ]
        }
    ],
    "accessors" : [
        {
            "bufferView" : 0,
            "componentType" : 5126,
            "count" : 29696,
            "max" : [
                0.01607879251241684,
                0.057723790407180786,
                0.016579970717430115
            ],
            "min" : [
                -0.01657082699239254,
                0.00022738610277883708,
                -0.015818478539586067
            ],
            "type" : "VEC3"
        },
        {
            "bufferView" : 1,
            "componentType" : 5126,
            "count" : 29696,
            "type" : "VEC3"
        },
        {
            "bufferView" : 2,
            "componentType" : 5126,
            "count" : 29696,
            "type" : "VEC2"
        },
        {
            "bufferView" : 3,
            "componentType" : 5123,
            "count" : 44544,
            "type" : "SCALAR"
        }
    ],
    "bufferViews" : [
        {
            "buffer" : 0,
            "byteLength" : 356352,
            "byteOffset" : 0
        },
        {
            "buffer" : 0,
            "byteLength" : 356352,
            "byteOffset" : 356352
        },
        {
            "buffer" : 0,
            "byteLength" : 237568,
            "byteOffset" : 712704
        },
        {
            "buffer" : 0,
            "byteLength" : 89088,
            "byteOffset" : 950272
        }
    ],
    "buffers" : [
        {
            "byteLength" : 1039360,
            "uri" : "data:application/octet-stream;base64,"
        }
    ]
}
