{
	"asset":{
		"generator":"Khronos glTF Blender I/O v3.5.30",
		"version":"2.0"
	},
	"scene":0,
	"scenes":[
		{
			"name":"Scene",
			"nodes":[
				0
			]
		}
	],
	"nodes":[
		{
			"mesh":0,
			"name":"Board",
			"scale":[
				50.04878616333008,
				50.04878616333008,
				50.04878616333008
			],
			"translation":[
				0,
				0.4930126667022705,
				0
			]
		}
	],
	"materials":[
		{
			"doubleSided":true,
			"name":"White Squares",
			"pbrMetallicRoughness":{
				"metallicFactor":0,
				"roughnessFactor":0.5
			}
		},
		{
			"doubleSided":true,
			"name":"Black Squares",
			"pbrMetallicRoughness":{
				"baseColorFactor":[
					0.0028969496488571167,
					0.0028969496488571167,
					0.0028969496488571167,
					1
				],
				"metallicFactor":0,
				"roughnessFactor":0.5
			}
		}
	],
	"meshes":[
		{
			"name":"Grid",
			"primitives":[
				{
					"attributes":{
						"POSITION":0,
						"TEXCOORD_0":1,
						"NORMAL":2
					},
					"indices":3,
					"material":0
				},
				{
					"attributes":{
						"POSITION":4,
						"TEXCOORD_0":5,
						"NORMAL":6
					},
					"indices":7,
					"material":1
				}
			]
		}
	],
	"accessors":[
		{
			"bufferView":0,
			"componentType":5126,
			"count":736,
			"max":[
				0.24000002443790436,
				0,
				0.23999999463558197
			],
			"min":[
				-0.23999999463558197,
				-0.004879245068877935,
				-0.24000002443790436
			],
			"type":"VEC3"
		},
		{
			"bufferView":1,
			"componentType":5126,
			"count":736,
			"type":"VEC2"
		},
		{
			"bufferView":2,
			"componentType":5126,
			"count":736,
			"type":"VEC3"
		},
		{
			"bufferView":3,
			"componentType":5123,
			"count":1152,
			"type":"SCALAR"
		},
		{
			"bufferView":4,
			"componentType":5126,
			"count":736,
			"max":[
				0.24000002443790436,
				0,
				0.23999999463558197
			],
			"min":[
				-0.23999999463558197,
				-0.004879245068877935,
				-0.24000002443790436
			],
			"type":"VEC3"
		},
		{
			"bufferView":5,
			"componentType":5126,
			"count":736,
			"type":"VEC2"
		},
		{
			"bufferView":6,
			"componentType":5126,
			"count":736,
			"type":"VEC3"
		},
		{
			"bufferView":7,
			"componentType":5123,
			"count":1152,
			"type":"SCALAR"
		}
	],
	"bufferViews":[
		{
			"buffer":0,
			"byteLength":8832,
			"byteOffset":0,
			"target":34962
		},
		{
			"buffer":0,
			"byteLength":5888,
			"byteOffset":8832,
			"target":34962
		},
		{
			"buffer":0,
			"byteLength":8832,
			"byteOffset":14720,
			"target":34962
		},
		{
			"buffer":0,
			"byteLength":2304,
			"byteOffset":23552,
			"target":34963
		},
		{
			"buffer":0,
			"byteLength":8832,
			"byteOffset":25856,
			"target":34962
		},
		{
			"buffer":0,
			"byteLength":5888,
			"byteOffset":34688,
			"target":34962
		},
		{
			"buffer":0,
			"byteLength":8832,
			"byteOffset":40576,
			"target":34962
		},
		{
			"buffer":0,
			"byteLength":2304,
			"byteOffset":49408,
			"target":34963
		}
	],
	"buffers":[
		{
			"byteLength":51712,
			"uri":"data:application/octet-stream;base64,"
		}
	]
}
