{
    "asset" : {
        "generator" : "Khronos glTF Blender I/O v1.6.16",
        "version" : "2.0"
    },
    "scene" : 0,
    "scenes" : [
        {
            "name" : "Scene",
            "nodes" : [
                0
            ]
        }
    ],
    "nodes" : [
        {
            "mesh" : 0,
            "name" : "Bishop",
            "scale" : [
                0.8157693147659302,
                1.0187797546386719,
                0.8166131973266602
            ]
        }
    ],
    "materials" : [
        {
            "doubleSided" : true,
            "name" : "Material",
            "pbrMetallicRoughness" : {
                "baseColorFactor" : [
                    0.011134919710457325,
                    0.011134919710457325,
                    0.011134919710457325,
                    1
                ],
                "metallicFactor" : 0,
                "roughnessFactor" : 0.5
            }
        }
    ],
    "meshes" : [
        {
            "name" : "Sphere.003",
            "primitives" : [
                {
                    "attributes" : {
                        "POSITION" : 0,
                        "NORMAL" : 1,
                        "TEXCOORD_0" : 2
                    },
                    "indices" : 3,
                    "material" : 0
                }
            ]
        }
    ],
    "accessors" : [
        {
            "bufferView" : 0,
            "componentType" : 5126,
            "count" : 79934,
            "max" : [
                0.016324812546372414,
                0.0653623566031456,
                0.016199219971895218
            ],
            "min" : [
                -0.016324812546372414,
                0.00020758585014846176,
                -0.016199225559830666
            ],
            "type" : "VEC3"
        },
        {
            "bufferView" : 1,
            "componentType" : 5126,
            "count" : 79934,
            "type" : "VEC3"
        },
        {
            "bufferView" : 2,
            "componentType" : 5126,
            "count" : 79934,
            "type" : "VEC2"
        },
        {
            "bufferView" : 3,
            "componentType" : 5125,
            "count" : 120192,
            "type" : "SCALAR"
        }
    ],
    "bufferViews" : [
        {
            "buffer" : 0,
            "byteLength" : 959208,
            "byteOffset" : 0
        },
        {
            "buffer" : 0,
            "byteLength" : 959208,
            "byteOffset" : 959208
        },
        {
            "buffer" : 0,
            "byteLength" : 639472,
            "byteOffset" : 1918416
        },
        {
            "buffer" : 0,
            "byteLength" : 480768,
            "byteOffset" : 2557888
        }
    ],
    "buffers" : [
        {
            "byteLength" : 3038656,
            "uri" : "data:application/octet-stream;base64,"
        }
    ]
}
