{
    "asset" : {
        "generator" : "Khronos glTF Blender I/O v1.6.16",
        "version" : "2.0"
    },
    "scene" : 0,
    "scenes" : [
        {
            "name" : "Scene",
            "nodes" : [
                0,
                1,
                2,
                3
            ]
        }
    ],
    "nodes" : [
        {
            "mesh" : 0,
            "name" : "Bishop",
            "scale" : [
                0.8157693147659302,
                1.0187797546386719,
                0.8166131973266602
            ]
        },
        {
            "mesh" : 1,
            "name" : "Text",
            "rotation" : [
                0,
                -0.7071068286895752,
                0,
                0.7071068286895752
            ],
            "scale" : [
                0.04821203649044037,
                0.04821203649044037,
                0.04821203649044037
            ],
            "translation" : [
                0.001655792584642768,
                0.03170119971036911,
                0
            ]
        },
        {
            "name" : "Camera",
            "rotation" : [
                0.483536034822464,
                0.33687159419059753,
                -0.20870360732078552,
                0.7804827094078064
            ],
            "translation" : [
                7.358891487121582,
                4.958309173583984,
                6.925790786743164
            ]
        },
        {
            "name" : "Light",
            "rotation" : [
                0.16907575726509094,
                0.7558803558349609,
                -0.27217137813568115,
                0.570947527885437
            ],
            "translation" : [
                4.076245307922363,
                5.903861999511719,
                -1.0054539442062378
            ]
        }
    ],
    "materials" : [
        {
            "doubleSided" : true,
            "name" : "Material",
            "pbrMetallicRoughness" : {
                "baseColorFactor" : [
                    0.011134919710457325,
                    0.011134919710457325,
                    0.011134919710457325,
                    1
                ],
                "metallicFactor" : 0,
                "roughnessFactor" : 0.5
            }
        }
    ],
    "meshes" : [
        {
            "name" : "Sphere.003",
            "primitives" : [
                {
                    "attributes" : {
                        "POSITION" : 0,
                        "NORMAL" : 1,
                        "TEXCOORD_0" : 2
                    },
                    "indices" : 3,
                    "material" : 0
                }
            ]
        },
        {
            "name" : "Text",
            "primitives" : [
                {
                    "attributes" : {
                        "POSITION" : 4,
                        "NORMAL" : 5,
                        "TEXCOORD_0" : 6
                    },
                    "indices" : 7
                }
            ]
        }
    ],
    "accessors" : [
        {
            "bufferView" : 0,
            "componentType" : 5126,
            "count" : 5154,
            "max" : [
                0.015935633331537247,
                0.06564754247665405,
                0.012933495454490185
            ],
            "min" : [
                -0.011876171454787254,
                0,
                -0.01293349638581276
            ],
            "type" : "VEC3"
        },
        {
            "bufferView" : 1,
            "componentType" : 5126,
            "count" : 5154,
            "type" : "VEC3"
        },
        {
            "bufferView" : 2,
            "componentType" : 5126,
            "count" : 5154,
            "type" : "VEC2"
        },
        {
            "bufferView" : 3,
            "componentType" : 5123,
            "count" : 10986,
            "type" : "SCALAR"
        },
        {
            "bufferView" : 4,
            "componentType" : 5126,
            "count" : 1991,
            "max" : [
                0.21906691789627075,
                1.059999942779541,
                0.23529410362243652
            ],
            "min" : [
                -0.21906693279743195,
                -1.059999942779541,
                -0.23529410362243652
            ],
            "type" : "VEC3"
        },
        {
            "bufferView" : 5,
            "componentType" : 5126,
            "count" : 1991,
            "type" : "VEC3"
        },
        {
            "bufferView" : 6,
            "componentType" : 5126,
            "count" : 1991,
            "type" : "VEC2"
        },
        {
            "bufferView" : 7,
            "componentType" : 5123,
            "count" : 5100,
            "type" : "SCALAR"
        }
    ],
    "bufferViews" : [
        {
            "buffer" : 0,
            "byteLength" : 61848,
            "byteOffset" : 0
        },
        {
            "buffer" : 0,
            "byteLength" : 61848,
            "byteOffset" : 61848
        },
        {
            "buffer" : 0,
            "byteLength" : 41232,
            "byteOffset" : 123696
        },
        {
            "buffer" : 0,
            "byteLength" : 21972,
            "byteOffset" : 164928
        },
        {
            "buffer" : 0,
            "byteLength" : 23892,
            "byteOffset" : 186900
        },
        {
            "buffer" : 0,
            "byteLength" : 23892,
            "byteOffset" : 210792
        },
        {
            "buffer" : 0,
            "byteLength" : 15928,
            "byteOffset" : 234684
        },
        {
            "buffer" : 0,
            "byteLength" : 10200,
            "byteOffset" : 250612
        }
    ],
    "buffers" : [
        {
            "byteLength" : 260812,
            "uri" : "data:application/octet-stream;base64,"
        }
    ]
}
