{
  "asset": {
    "generator": "Khronos glTF Blender I/O v4.2.60",
    "version": "2.0"
  },
  "scene": 0,
  "scenes": [
    {
      "name": "Scene",
      "nodes": [0]
    }
  ],
  "nodes": [
    {
      "mesh": 0,
      "name": "Cube",
      "translation": [
        -11.018880844116211, 1.2554283142089844, 11.019757270812988
      ]
    }
  ],
  "materials": [
    {
      "doubleSided": true,
      "name": "White Squares.002",
      "pbrMetallicRoughness": {
        "metallicFactor": 0,
        "roughnessFactor": 0.5
      }
    },
    {
      "doubleSided": true,
      "name": "Black Squares.002",
      "pbrMetallicRoughness": {
        "baseColorFactor": [
          0.0028969496488571167, 0.0028969496488571167, 0.0028969496488571167, 1
        ],
        "metallicFactor": 0,
        "roughnessFactor": 0.5
      }
    }
  ],
  "meshes": [
    {
      "name": "Cube.003",
      "primitives": [
        {
          "attributes": {
            "POSITION": 0,
            "NORMAL": 1,
            "TEXCOORD_0": 2
          },
          "indices": 3,
          "material": 0
        },
        {
          "attributes": {
            "POSITION": 4,
            "NORMAL": 5,
            "TEXCOORD_0": 6
          },
          "indices": 7,
          "material": 1
        }
      ]
    }
  ],
  "accessors": [
    {
      "bufferView": 0,
      "componentType": 5126,
      "count": 2912,
      "max": [23.13017463684082, -0.36466363072395325, 1],
      "min": [-1, -0.6826534271240234, -23.04296875],
      "type": "VEC3"
    },
    {
      "bufferView": 1,
      "componentType": 5126,
      "count": 2912,
      "type": "VEC3"
    },
    {
      "bufferView": 2,
      "componentType": 5126,
      "count": 2912,
      "type": "VEC2"
    },
    {
      "bufferView": 3,
      "componentType": 5123,
      "count": 6600,
      "type": "SCALAR"
    },
    {
      "bufferView": 4,
      "componentType": 5126,
      "count": 1353,
      "max": [23.13017463684082, -0.36466363072395325, 1],
      "min": [-1, -0.682652473449707, -23.04296875],
      "type": "VEC3"
    },
    {
      "bufferView": 5,
      "componentType": 5126,
      "count": 1353,
      "type": "VEC3"
    },
    {
      "bufferView": 6,
      "componentType": 5126,
      "count": 1353,
      "type": "VEC2"
    },
    {
      "bufferView": 7,
      "componentType": 5123,
      "count": 3648,
      "type": "SCALAR"
    }
  ],
  "bufferViews": [
    {
      "buffer": 0,
      "byteLength": 34944,
      "byteOffset": 0,
      "target": 34962
    },
    {
      "buffer": 0,
      "byteLength": 34944,
      "byteOffset": 34944,
      "target": 34962
    },
    {
      "buffer": 0,
      "byteLength": 23296,
      "byteOffset": 69888,
      "target": 34962
    },
    {
      "buffer": 0,
      "byteLength": 13200,
      "byteOffset": 93184,
      "target": 34963
    },
    {
      "buffer": 0,
      "byteLength": 16236,
      "byteOffset": 106384,
      "target": 34962
    },
    {
      "buffer": 0,
      "byteLength": 16236,
      "byteOffset": 122620,
      "target": 34962
    },
    {
      "buffer": 0,
      "byteLength": 10824,
      "byteOffset": 138856,
      "target": 34962
    },
    {
      "buffer": 0,
      "byteLength": 7296,
      "byteOffset": 149680,
      "target": 34963
    }
  ],
  "buffers": [
    {
      "byteLength": 156976,
      "uri": "data:application/octet-stream;base64,"
    }
  ]
}
