{
    "asset" : {
        "generator" : "Khronos glTF Blender I/O v1.6.16",
        "version" : "2.0"
    },
    "scene" : 0,
    "scenes" : [
        {
            "name" : "Scene",
            "nodes" : [
                0,
                1,
                2,
                3
            ]
        }
    ],
    "nodes" : [
        {
            "mesh" : 0,
            "name" : "King",
            "scale" : [
                1,
                1.023789644241333,
                1
            ]
        },
        {
            "mesh" : 1,
            "name" : "Text",
            "rotation" : [
                0,
                -0.7071068286895752,
                0,
                0.7071068286895752
            ],
            "scale" : [
                0.07806731015443802,
                0.10651662945747375,
                0.07806731015443802
            ],
            "translation" : [
                0.0017255693674087524,
                0.04476109519600868,
                -0.00014664232730865479
            ]
        },
        {
            "name" : "Camera",
            "rotation" : [
                0.483536034822464,
                0.33687159419059753,
                -0.20870360732078552,
                0.7804827094078064
            ],
            "translation" : [
                7.358891487121582,
                4.958309173583984,
                6.925790786743164
            ]
        },
        {
            "name" : "Light",
            "rotation" : [
                0.16907575726509094,
                0.7558803558349609,
                -0.27217137813568115,
                0.570947527885437
            ],
            "translation" : [
                4.076245307922363,
                5.903861999511719,
                -1.0054539442062378
            ]
        }
    ],
    "materials" : [
        {
            "doubleSided" : true,
            "name" : "Material",
            "pbrMetallicRoughness" : {
                "baseColorFactor" : [
                    0.011134919710457325,
                    0.011134919710457325,
                    0.011134919710457325,
                    1
                ],
                "metallicFactor" : 0,
                "roughnessFactor" : 0.5
            }
        }
    ],
    "meshes" : [
        {
            "name" : "Plane.002",
            "primitives" : [
                {
                    "attributes" : {
                        "POSITION" : 0,
                        "NORMAL" : 1,
                        "TEXCOORD_0" : 2
                    },
                    "indices" : 3,
                    "material" : 0
                }
            ]
        },
        {
            "name" : "Text",
            "primitives" : [
                {
                    "attributes" : {
                        "POSITION" : 4,
                        "NORMAL" : 5,
                        "TEXCOORD_0" : 6
                    },
                    "indices" : 7
                }
            ]
        }
    ],
    "accessors" : [
        {
            "bufferView" : 0,
            "componentType" : 5126,
            "count" : 9340,
            "max" : [
                0.019038671627640724,
                0.08737661689519882,
                0.01587325520813465
            ],
            "min" : [
                -0.01558753289282322,
                0,
                -0.01616653986275196
            ],
            "type" : "VEC3"
        },
        {
            "bufferView" : 1,
            "componentType" : 5126,
            "count" : 9340,
            "type" : "VEC3"
        },
        {
            "bufferView" : 2,
            "componentType" : 5126,
            "count" : 9340,
            "type" : "VEC2"
        },
        {
            "bufferView" : 3,
            "componentType" : 5123,
            "count" : 18486,
            "type" : "SCALAR"
        },
        {
            "bufferView" : 4,
            "componentType" : 5126,
            "count" : 2077,
            "max" : [
                0.20520621538162231,
                0.5699999928474426,
                0.2217714637517929
            ],
            "min" : [
                -0.20520621538162231,
                -0.5699999928474426,
                -0.2217714637517929
            ],
            "type" : "VEC3"
        },
        {
            "bufferView" : 5,
            "componentType" : 5126,
            "count" : 2077,
            "type" : "VEC3"
        },
        {
            "bufferView" : 6,
            "componentType" : 5126,
            "count" : 2077,
            "type" : "VEC2"
        },
        {
            "bufferView" : 7,
            "componentType" : 5123,
            "count" : 5304,
            "type" : "SCALAR"
        }
    ],
    "bufferViews" : [
        {
            "buffer" : 0,
            "byteLength" : 112080,
            "byteOffset" : 0
        },
        {
            "buffer" : 0,
            "byteLength" : 112080,
            "byteOffset" : 112080
        },
        {
            "buffer" : 0,
            "byteLength" : 74720,
            "byteOffset" : 224160
        },
        {
            "buffer" : 0,
            "byteLength" : 36972,
            "byteOffset" : 298880
        },
        {
            "buffer" : 0,
            "byteLength" : 24924,
            "byteOffset" : 335852
        },
        {
            "buffer" : 0,
            "byteLength" : 24924,
            "byteOffset" : 360776
        },
        {
            "buffer" : 0,
            "byteLength" : 16616,
            "byteOffset" : 385700
        },
        {
            "buffer" : 0,
            "byteLength" : 10608,
            "byteOffset" : 402316
        }
    ],
    "buffers" : [
        {
            "byteLength" : 412924,
            "uri" : "data:application/octet-stream;base64,"
        }
    ]
}
