{
    "asset" : {
        "generator" : "Khronos glTF Blender I/O v1.7.33",
        "version" : "2.0"
    },
    "scene" : 0,
    "scenes" : [
        {
            "name" : "Scene",
            "nodes" : [
                0,
                1
            ]
        }
    ],
    "nodes" : [
        {
            "mesh" : 0,
            "name" : "King",
            "scale" : [
                1,
                1.023789644241333,
                1
            ]
        },
        {
            "name" : "Empty"
        }
    ],
    "materials" : [
        {
            "doubleSided" : true,
            "name" : "Material",
            "pbrMetallicRoughness" : {
                "baseColorFactor" : [
                    0.011134919710457325,
                    0.011134919710457325,
                    0.011134919710457325,
                    1
                ],
                "metallicFactor" : 0,
                "roughnessFactor" : 0.5
            }
        }
    ],
    "meshes" : [
        {
            "name" : "Plane.001",
            "primitives" : [
                {
                    "attributes" : {
                        "POSITION" : 0,
                        "NORMAL" : 1,
                        "TEXCOORD_0" : 2
                    },
                    "indices" : 3,
                    "material" : 0
                }
            ]
        }
    ],
    "accessors" : [
        {
            "bufferView" : 0,
            "componentType" : 5126,
            "count" : 1372,
            "max" : [
                0.01565232127904892,
                0.08776608109474182,
                0.01553190965205431
            ],
            "min" : [
                -0.01565231941640377,
                0,
                -0.015531899407505989
            ],
            "type" : "VEC3"
        },
        {
            "bufferView" : 1,
            "componentType" : 5126,
            "count" : 1372,
            "type" : "VEC3"
        },
        {
            "bufferView" : 2,
            "componentType" : 5126,
            "count" : 1372,
            "type" : "VEC2"
        },
        {
            "bufferView" : 3,
            "componentType" : 5123,
            "count" : 6456,
            "type" : "SCALAR"
        }
    ],
    "bufferViews" : [
        {
            "buffer" : 0,
            "byteLength" : 16464,
            "byteOffset" : 0
        },
        {
            "buffer" : 0,
            "byteLength" : 16464,
            "byteOffset" : 16464
        },
        {
            "buffer" : 0,
            "byteLength" : 10976,
            "byteOffset" : 32928
        },
        {
            "buffer" : 0,
            "byteLength" : 12912,
            "byteOffset" : 43904
        }
    ],
    "buffers" : [
        {
            "byteLength" : 56816,
            "uri" : "data:application/octet-stream;base64,"
        }
    ]
}
