{
    "asset" : {
        "generator" : "Khronos glTF Blender I/O v1.7.33",
        "version" : "2.0"
    },
    "scene" : 0,
    "scenes" : [
        {
            "name" : "Scene",
            "nodes" : [
                0
            ]
        }
    ],
    "nodes" : [
        {
            "mesh" : 0,
            "name" : "Knight",
            "scale" : [
                0.014999999664723873,
                0.006850000005215406,
                0.014884603209793568
            ]
        }
    ],
    "materials" : [
        {
            "doubleSided" : true,
            "name" : "Material",
            "pbrMetallicRoughness" : {
                "baseColorFactor" : [
                    0.011134919710457325,
                    0.011134919710457325,
                    0.011134919710457325,
                    1
                ],
                "metallicFactor" : 0,
                "roughnessFactor" : 0.5
            }
        }
    ],
    "meshes" : [
        {
            "name" : "Cylinder.002",
            "primitives" : [
                {
                    "attributes" : {
                        "POSITION" : 0,
                        "NORMAL" : 1,
                        "TEXCOORD_0" : 2
                    },
                    "indices" : 3,
                    "material" : 0
                }
            ]
        }
    ],
    "accessors" : [
        {
            "bufferView" : 0,
            "componentType" : 5126,
            "count" : 1576,
            "max" : [
                1.1693179607391357,
                8.234614372253418,
                0.8496166467666626
            ],
            "min" : [
                -0.9715728759765625,
                0.023790214210748672,
                -0.8496167063713074
            ],
            "type" : "VEC3"
        },
        {
            "bufferView" : 1,
            "componentType" : 5126,
            "count" : 1576,
            "type" : "VEC3"
        },
        {
            "bufferView" : 2,
            "componentType" : 5126,
            "count" : 1576,
            "type" : "VEC2"
        },
        {
            "bufferView" : 3,
            "componentType" : 5123,
            "count" : 7386,
            "type" : "SCALAR"
        }
    ],
    "bufferViews" : [
        {
            "buffer" : 0,
            "byteLength" : 18912,
            "byteOffset" : 0
        },
        {
            "buffer" : 0,
            "byteLength" : 18912,
            "byteOffset" : 18912
        },
        {
            "buffer" : 0,
            "byteLength" : 12608,
            "byteOffset" : 37824
        },
        {
            "buffer" : 0,
            "byteLength" : 14772,
            "byteOffset" : 50432
        }
    ],
    "buffers" : [
        {
            "byteLength" : 65204,
            "uri" : "data:application/octet-stream;base64,"
        }
    ]
}
