{
    "asset" : {
        "generator" : "Khronos glTF Blender I/O v1.6.16",
        "version" : "2.0"
    },
    "scene" : 0,
    "scenes" : [
        {
            "name" : "Scene",
            "nodes" : [
                0,
                1,
                2,
                3
            ]
        }
    ],
    "nodes" : [
        {
            "mesh" : 0,
            "name" : "Knight",
            "scale" : [
                0.014999999664723873,
                0.006850000005215406,
                0.014884603209793568
            ]
        },
        {
            "mesh" : 1,
            "name" : "Text",
            "rotation" : [
                0,
                -0.7071068286895752,
                0,
                0.7071068286895752
            ],
            "scale" : [
                0.05415323004126549,
                0.045127689838409424,
                0.05415323004126549
            ],
            "translation" : [
                0.0016747675836086273,
                0.0013090968132019043,
                -0.0004238113760948181
            ]
        },
        {
            "name" : "Camera",
            "rotation" : [
                0.483536034822464,
                0.33687159419059753,
                -0.20870360732078552,
                0.7804827094078064
            ],
            "translation" : [
                7.358891487121582,
                4.958309173583984,
                6.925790786743164
            ]
        },
        {
            "name" : "Light",
            "rotation" : [
                0.16907575726509094,
                0.7558803558349609,
                -0.27217137813568115,
                0.570947527885437
            ],
            "translation" : [
                4.076245307922363,
                5.903861999511719,
                -1.0054539442062378
            ]
        }
    ],
    "materials" : [
        {
            "doubleSided" : true,
            "name" : "Material",
            "pbrMetallicRoughness" : {
                "baseColorFactor" : [
                    0.011134919710457325,
                    0.011134919710457325,
                    0.011134919710457325,
                    1
                ],
                "metallicFactor" : 0,
                "roughnessFactor" : 0.5
            }
        },
        {
            "doubleSided" : true,
            "name" : "Material.001",
            "pbrMetallicRoughness" : {
                "baseColorFactor" : [
                    0.8000000715255737,
                    0.013498823158442974,
                    0.01815981976687908,
                    1
                ],
                "metallicFactor" : 0,
                "roughnessFactor" : 0.5
            }
        }
    ],
    "meshes" : [
        {
            "name" : "Cylinder.002",
            "primitives" : [
                {
                    "attributes" : {
                        "POSITION" : 0,
                        "NORMAL" : 1,
                        "TEXCOORD_0" : 2
                    },
                    "indices" : 3,
                    "material" : 0
                }
            ]
        },
        {
            "name" : "Text.001",
            "primitives" : [
                {
                    "attributes" : {
                        "POSITION" : 4,
                        "NORMAL" : 5,
                        "TEXCOORD_0" : 6
                    },
                    "indices" : 7,
                    "material" : 1
                }
            ]
        }
    ],
    "accessors" : [
        {
            "bufferView" : 0,
            "componentType" : 5126,
            "count" : 6062,
            "max" : [
                0.8305209279060364,
                8.3076753616333,
                0.7107293009757996
            ],
            "min" : [
                -0.6072185635566711,
                0,
                -0.7676756381988525
            ],
            "type" : "VEC3"
        },
        {
            "bufferView" : 1,
            "componentType" : 5126,
            "count" : 6062,
            "type" : "VEC3"
        },
        {
            "bufferView" : 2,
            "componentType" : 5126,
            "count" : 6062,
            "type" : "VEC2"
        },
        {
            "bufferView" : 3,
            "componentType" : 5123,
            "count" : 13272,
            "type" : "SCALAR"
        },
        {
            "bufferView" : 4,
            "componentType" : 5126,
            "count" : 1580,
            "max" : [
                0.203177809715271,
                1.2799999713897705,
                0.19912102818489075
            ],
            "min" : [
                -0.2031778246164322,
                -1.2799999713897705,
                -0.19912102818489075
            ],
            "type" : "VEC3"
        },
        {
            "bufferView" : 5,
            "componentType" : 5126,
            "count" : 1580,
            "type" : "VEC3"
        },
        {
            "bufferView" : 6,
            "componentType" : 5126,
            "count" : 1580,
            "type" : "VEC2"
        },
        {
            "bufferView" : 7,
            "componentType" : 5123,
            "count" : 4068,
            "type" : "SCALAR"
        }
    ],
    "bufferViews" : [
        {
            "buffer" : 0,
            "byteLength" : 72744,
            "byteOffset" : 0
        },
        {
            "buffer" : 0,
            "byteLength" : 72744,
            "byteOffset" : 72744
        },
        {
            "buffer" : 0,
            "byteLength" : 48496,
            "byteOffset" : 145488
        },
        {
            "buffer" : 0,
            "byteLength" : 26544,
            "byteOffset" : 193984
        },
        {
            "buffer" : 0,
            "byteLength" : 18960,
            "byteOffset" : 220528
        },
        {
            "buffer" : 0,
            "byteLength" : 18960,
            "byteOffset" : 239488
        },
        {
            "buffer" : 0,
            "byteLength" : 12640,
            "byteOffset" : 258448
        },
        {
            "buffer" : 0,
            "byteLength" : 8136,
            "byteOffset" : 271088
        }
    ],
    "buffers" : [
        {
            "byteLength" : 279224,
            "uri" : "data:application/octet-stream;base64,"
        }
    ]
}
