{
    "asset" : {
        "generator" : "Khronos glTF Blender I/O v1.6.16",
        "version" : "2.0"
    },
    "scene" : 0,
    "scenes" : [
        {
            "name" : "Scene",
            "nodes" : [
                0,
                1,
                2,
                3
            ]
        }
    ],
    "nodes" : [
        {
            "mesh" : 0,
            "name" : "Pawn",
            "scale" : [
                1.1754356622695923,
                0.8162747025489807,
                1.1754356622695923
            ],
            "translation" : [
                0.0006778150564059615,
                0,
                0
            ]
        },
        {
            "mesh" : 1,
            "name" : "Text",
            "rotation" : [
                0,
                0.7071068286895752,
                0,
                0.7071068286895752
            ],
            "scale" : [
                0.07619614154100418,
                0.08909448236227036,
                0.07619614154100418
            ],
            "translation" : [
                -0.0037587913684546947,
                0.025853026658296585,
                0
            ]
        },
        {
            "name" : "Camera",
            "rotation" : [
                0.483536034822464,
                0.33687159419059753,
                -0.20870360732078552,
                0.7804827094078064
            ],
            "translation" : [
                7.358891487121582,
                4.958309173583984,
                6.925790786743164
            ]
        },
        {
            "name" : "Light",
            "rotation" : [
                0.16907575726509094,
                0.7558803558349609,
                -0.27217137813568115,
                0.570947527885437
            ],
            "translation" : [
                4.076245307922363,
                5.903861999511719,
                -1.0054539442062378
            ]
        }
    ],
    "materials" : [
        {
            "doubleSided" : true,
            "name" : "Material",
            "pbrMetallicRoughness" : {
                "baseColorFactor" : [
                    0.011134919710457325,
                    0.011134919710457325,
                    0.011134919710457325,
                    1
                ],
                "metallicFactor" : 0,
                "roughnessFactor" : 0.5
            }
        },
        {
            "doubleSided" : true,
            "name" : "Material.001",
            "pbrMetallicRoughness" : {
                "baseColorFactor" : [
                    0.02245488204061985,
                    0.8000000715255737,
                    0.017093978822231293,
                    1
                ],
                "metallicFactor" : 0,
                "roughnessFactor" : 0.5
            }
        }
    ],
    "meshes" : [
        {
            "name" : "Sphere.001",
            "primitives" : [
                {
                    "attributes" : {
                        "POSITION" : 0,
                        "NORMAL" : 1,
                        "TEXCOORD_0" : 2
                    },
                    "indices" : 3,
                    "material" : 0
                }
            ]
        },
        {
            "name" : "Text",
            "primitives" : [
                {
                    "attributes" : {
                        "POSITION" : 4,
                        "NORMAL" : 5,
                        "TEXCOORD_0" : 6
                    },
                    "indices" : 7,
                    "material" : 1
                }
            ]
        }
    ],
    "accessors" : [
        {
            "bufferView" : 0,
            "componentType" : 5126,
            "count" : 1490,
            "max" : [
                0.010440431535243988,
                0.058204710483551025,
                0.009405926801264286
            ],
            "min" : [
                -0.015331282280385494,
                1.9798055291175842e-05,
                -0.009396904148161411
            ],
            "type" : "VEC3"
        },
        {
            "bufferView" : 1,
            "componentType" : 5126,
            "count" : 1490,
            "type" : "VEC3"
        },
        {
            "bufferView" : 2,
            "componentType" : 5126,
            "count" : 1490,
            "type" : "VEC2"
        },
        {
            "bufferView" : 3,
            "componentType" : 5123,
            "count" : 3882,
            "type" : "SCALAR"
        },
        {
            "bufferView" : 4,
            "componentType" : 5126,
            "count" : 666,
            "max" : [
                0.14496082067489624,
                0.4399999976158142,
                0.21928486227989197
            ],
            "min" : [
                -0.14510002732276917,
                -0.4399999976158142,
                -0.1782810389995575
            ],
            "type" : "VEC3"
        },
        {
            "bufferView" : 5,
            "componentType" : 5126,
            "count" : 666,
            "type" : "VEC3"
        },
        {
            "bufferView" : 6,
            "componentType" : 5126,
            "count" : 666,
            "type" : "VEC2"
        },
        {
            "bufferView" : 7,
            "componentType" : 5123,
            "count" : 1728,
            "type" : "SCALAR"
        }
    ],
    "bufferViews" : [
        {
            "buffer" : 0,
            "byteLength" : 17880,
            "byteOffset" : 0
        },
        {
            "buffer" : 0,
            "byteLength" : 17880,
            "byteOffset" : 17880
        },
        {
            "buffer" : 0,
            "byteLength" : 11920,
            "byteOffset" : 35760
        },
        {
            "buffer" : 0,
            "byteLength" : 7764,
            "byteOffset" : 47680
        },
        {
            "buffer" : 0,
            "byteLength" : 7992,
            "byteOffset" : 55444
        },
        {
            "buffer" : 0,
            "byteLength" : 7992,
            "byteOffset" : 63436
        },
        {
            "buffer" : 0,
            "byteLength" : 5328,
            "byteOffset" : 71428
        },
        {
            "buffer" : 0,
            "byteLength" : 3456,
            "byteOffset" : 76756
        }
    ],
    "buffers" : [
        {
            "byteLength" : 80212,
            "uri" : "data:application/octet-stream;base64,"
        }
    ]
}
