{
    "asset" : {
        "generator" : "Khronos glTF Blender I/O v1.7.33",
        "version" : "2.0"
    },
    "scene" : 0,
    "scenes" : [
        {
            "name" : "Scene",
            "nodes" : [
                0
            ]
        }
    ],
    "nodes" : [
        {
            "mesh" : 0,
            "name" : "Pawn",
            "scale" : [
                0.8162747025489807,
                0.8162747025489807,
                0.8162747025489807
            ]
        }
    ],
    "materials" : [
        {
            "doubleSided" : true,
            "name" : "Material",
            "pbrMetallicRoughness" : {
                "baseColorFactor" : [
                    0.011134919710457325,
                    0.011134919710457325,
                    0.011134919710457325,
                    1
                ],
                "metallicFactor" : 0,
                "roughnessFactor" : 0.5
            }
        }
    ],
    "meshes" : [
        {
            "name" : "Sphere.001",
            "primitives" : [
                {
                    "attributes" : {
                        "POSITION" : 0,
                        "NORMAL" : 1,
                        "TEXCOORD_0" : 2
                    },
                    "indices" : 3,
                    "material" : 0
                }
            ]
        }
    ],
    "accessors" : [
        {
            "bufferView" : 0,
            "componentType" : 5126,
            "count" : 673,
            "max" : [
                0.01586468145251274,
                0.057723790407180786,
                0.016367504373192787
            ],
            "min" : [
                -0.016356714069843292,
                0.00022738610277883708,
                -0.015606014057993889
            ],
            "type" : "VEC3"
        },
        {
            "bufferView" : 1,
            "componentType" : 5126,
            "count" : 673,
            "type" : "VEC3"
        },
        {
            "bufferView" : 2,
            "componentType" : 5126,
            "count" : 673,
            "type" : "VEC2"
        },
        {
            "bufferView" : 3,
            "componentType" : 5123,
            "count" : 2784,
            "type" : "SCALAR"
        }
    ],
    "bufferViews" : [
        {
            "buffer" : 0,
            "byteLength" : 8076,
            "byteOffset" : 0
        },
        {
            "buffer" : 0,
            "byteLength" : 8076,
            "byteOffset" : 8076
        },
        {
            "buffer" : 0,
            "byteLength" : 5384,
            "byteOffset" : 16152
        },
        {
            "buffer" : 0,
            "byteLength" : 5568,
            "byteOffset" : 21536
        }
    ],
    "buffers" : [
        {
            "byteLength" : 27104,
            "uri" : "data:application/octet-stream;base64,"
        }
    ]
}
