{
    "asset" : {
        "generator" : "Khronos glTF Blender I/O v1.7.33",
        "version" : "2.0"
    },
    "scene" : 0,
    "scenes" : [
        {
            "name" : "Scene",
            "nodes" : [
                0
            ]
        }
    ],
    "nodes" : [
        {
            "extras" : {
                "ant_landscape" : {}
            },
            "mesh" : 0,
            "name" : "Queen",
            "scale" : [
                0.014999999664723873,
                0.010858151130378246,
                0.014884603209793568
            ]
        }
    ],
    "materials" : [
        {
            "doubleSided" : true,
            "name" : "Material",
            "pbrMetallicRoughness" : {}
        }
    ],
    "meshes" : [
        {
            "name" : "Cylinder.005",
            "primitives" : [
                {
                    "attributes" : {
                        "POSITION" : 0,
                        "NORMAL" : 1,
                        "TEXCOORD_0" : 2
                    },
                    "indices" : 3,
                    "material" : 0
                }
            ]
        }
    ],
    "accessors" : [
        {
            "bufferView" : 0,
            "componentType" : 5126,
            "count" : 1526,
            "max" : [
                0.9776562452316284,
                7.238814353942871,
                0.9776564836502075
            ],
            "min" : [
                -0.9776561260223389,
                0.016270188614726067,
                -0.9776561260223389
            ],
            "type" : "VEC3"
        },
        {
            "bufferView" : 1,
            "componentType" : 5126,
            "count" : 1526,
            "type" : "VEC3"
        },
        {
            "bufferView" : 2,
            "componentType" : 5126,
            "count" : 1526,
            "type" : "VEC2"
        },
        {
            "bufferView" : 3,
            "componentType" : 5123,
            "count" : 6480,
            "type" : "SCALAR"
        }
    ],
    "bufferViews" : [
        {
            "buffer" : 0,
            "byteLength" : 18312,
            "byteOffset" : 0
        },
        {
            "buffer" : 0,
            "byteLength" : 18312,
            "byteOffset" : 18312
        },
        {
            "buffer" : 0,
            "byteLength" : 12208,
            "byteOffset" : 36624
        },
        {
            "buffer" : 0,
            "byteLength" : 12960,
            "byteOffset" : 48832
        }
    ],
    "buffers" : [
        {
            "byteLength" : 61792,
            "uri" : "data:application/octet-stream;base64,"
        }
    ]
}
