{
    "asset" : {
        "generator" : "Khronos glTF Blender I/O v1.6.16",
        "version" : "2.0"
    },
    "scene" : 0,
    "scenes" : [
        {
            "extras" : {
                "glTF2ExportSettings" : {
                    "export_apply" : 1,
                    "export_copyright" : "",
                    "export_extras" : 1,
                    "export_format" : "GLTF_EMBEDDED"
                }
            },
            "name" : "Scene",
            "nodes" : [
                0
            ]
        }
    ],
    "nodes" : [
        {
            "extras" : {},
            "mesh" : 0,
            "name" : "Queen",
            "scale" : [
                0.014999999664723873,
                0.010858151130378246,
                0.014884603209793568
            ]
        }
    ],
    "materials" : [
        {
            "doubleSided" : true,
            "name" : "Material",
            "pbrMetallicRoughness" : {}
        }
    ],
    "meshes" : [
        {
            "name" : "Cylinder.005",
            "primitives" : [
                {
                    "attributes" : {
                        "POSITION" : 0,
                        "NORMAL" : 1,
                        "TEXCOORD_0" : 2
                    },
                    "indices" : 3,
                    "material" : 0
                }
            ]
        }
    ],
    "accessors" : [
        {
            "bufferView" : 0,
            "componentType" : 5126,
            "count" : 69082,
            "max" : [
                0.9836260676383972,
                7.238814353942871,
                0.9836262464523315
            ],
            "min" : [
                -0.9836259484291077,
                0.016270188614726067,
                -0.9836259484291077
            ],
            "type" : "VEC3"
        },
        {
            "bufferView" : 1,
            "componentType" : 5126,
            "count" : 69082,
            "type" : "VEC3"
        },
        {
            "bufferView" : 2,
            "componentType" : 5126,
            "count" : 69082,
            "type" : "VEC2"
        },
        {
            "bufferView" : 3,
            "componentType" : 5125,
            "count" : 103680,
            "type" : "SCALAR"
        }
    ],
    "bufferViews" : [
        {
            "buffer" : 0,
            "byteLength" : 828984,
            "byteOffset" : 0
        },
        {
            "buffer" : 0,
            "byteLength" : 828984,
            "byteOffset" : 828984
        },
        {
            "buffer" : 0,
            "byteLength" : 552656,
            "byteOffset" : 1657968
        },
        {
            "buffer" : 0,
            "byteLength" : 414720,
            "byteOffset" : 2210624
        }
    ],
    "buffers" : [
        {
            "byteLength" : 2625344,
            "uri" : "data:application/octet-stream;base64,"
        }
    ]
}
