{
    "asset" : {
        "generator" : "Khronos glTF Blender I/O v1.6.16",
        "version" : "2.0"
    },
    "scene" : 0,
    "scenes" : [
        {
            "extras" : {
                "glTF2ExportSettings" : {
                    "export_apply" : 1,
                    "export_copyright" : "",
                    "export_extras" : 1,
                    "export_format" : "GLTF_EMBEDDED"
                }
            },
            "name" : "Scene",
            "nodes" : [
                0,
                1,
                2,
                3
            ]
        }
    ],
    "nodes" : [
        {
            "extras" : {},
            "mesh" : 0,
            "name" : "Queen",
            "scale" : [
                0.014999999664723873,
                0.010858151130378246,
                0.014884603209793568
            ]
        },
        {
            "mesh" : 1,
            "name" : "Text",
            "scale" : [
                0.062244072556495667,
                0.027539080008864403,
                0.062244072556495667
            ],
            "translation" : [
                -0.00022102630464360118,
                0.051955219358205795,
                0.0009289045701734722
            ]
        },
        {
            "name" : "Camera",
            "rotation" : [
                0.483536034822464,
                0.33687159419059753,
                -0.20870360732078552,
                0.7804827094078064
            ],
            "translation" : [
                7.358891487121582,
                4.958309173583984,
                6.925790786743164
            ]
        },
        {
            "name" : "Light",
            "rotation" : [
                0.16907575726509094,
                0.7558803558349609,
                -0.27217137813568115,
                0.570947527885437
            ],
            "translation" : [
                0.41532206535339355,
                1.2111867666244507,
                1.2916442155838013
            ]
        }
    ],
    "materials" : [
        {
            "doubleSided" : true,
            "name" : "Material",
            "pbrMetallicRoughness" : {}
        }
    ],
    "meshes" : [
        {
            "name" : "Cylinder.005",
            "primitives" : [
                {
                    "attributes" : {
                        "POSITION" : 0,
                        "NORMAL" : 1,
                        "TEXCOORD_0" : 2
                    },
                    "indices" : 3,
                    "material" : 0
                }
            ]
        },
        {
            "name" : "Text",
            "primitives" : [
                {
                    "attributes" : {
                        "POSITION" : 4,
                        "NORMAL" : 5,
                        "TEXCOORD_0" : 6
                    },
                    "indices" : 7
                }
            ]
        }
    ],
    "accessors" : [
        {
            "bufferView" : 0,
            "componentType" : 5126,
            "count" : 13142,
            "max" : [
                0.9588369131088257,
                7.210636138916016,
                0.9756683707237244
            ],
            "min" : [
                -0.9883071184158325,
                0,
                -0.850854218006134
            ],
            "type" : "VEC3"
        },
        {
            "bufferView" : 1,
            "componentType" : 5126,
            "count" : 13142,
            "type" : "VEC3"
        },
        {
            "bufferView" : 2,
            "componentType" : 5126,
            "count" : 13142,
            "type" : "VEC2"
        },
        {
            "bufferView" : 3,
            "componentType" : 5123,
            "count" : 30192,
            "type" : "SCALAR"
        },
        {
            "bufferView" : 4,
            "componentType" : 5126,
            "count" : 3887,
            "max" : [
                0.23461797833442688,
                2.559999942779541,
                0.2183907926082611
            ],
            "min" : [
                -0.23461797833442688,
                -2.559999942779541,
                -0.2183907926082611
            ],
            "type" : "VEC3"
        },
        {
            "bufferView" : 5,
            "componentType" : 5126,
            "count" : 3887,
            "type" : "VEC3"
        },
        {
            "bufferView" : 6,
            "componentType" : 5126,
            "count" : 3887,
            "type" : "VEC2"
        },
        {
            "bufferView" : 7,
            "componentType" : 5123,
            "count" : 9864,
            "type" : "SCALAR"
        }
    ],
    "bufferViews" : [
        {
            "buffer" : 0,
            "byteLength" : 157704,
            "byteOffset" : 0
        },
        {
            "buffer" : 0,
            "byteLength" : 157704,
            "byteOffset" : 157704
        },
        {
            "buffer" : 0,
            "byteLength" : 105136,
            "byteOffset" : 315408
        },
        {
            "buffer" : 0,
            "byteLength" : 60384,
            "byteOffset" : 420544
        },
        {
            "buffer" : 0,
            "byteLength" : 46644,
            "byteOffset" : 480928
        },
        {
            "buffer" : 0,
            "byteLength" : 46644,
            "byteOffset" : 527572
        },
        {
            "buffer" : 0,
            "byteLength" : 31096,
            "byteOffset" : 574216
        },
        {
            "buffer" : 0,
            "byteLength" : 19728,
            "byteOffset" : 605312
        }
    ],
    "buffers" : [
        {
            "byteLength" : 625040,
            "uri" : "data:application/octet-stream;base64,"
        }
    ]
}
