{
    "asset" : {
        "generator" : "Khronos glTF Blender I/O v1.6.16",
        "version" : "2.0"
    },
    "scene" : 0,
    "scenes" : [
        {
            "name" : "Scene",
            "nodes" : [
                0,
                1,
                2,
                3
            ]
        }
    ],
    "nodes" : [
        {
            "mesh" : 0,
            "name" : "Rook",
            "scale" : [
                0.014999999664723873,
                0.008261670358479023,
                0.014884603209793568
            ]
        },
        {
            "mesh" : 1,
            "name" : "Text",
            "scale" : [
                0.05117018148303032,
                0.05117018148303032,
                0.06140422448515892
            ],
            "translation" : [
                0.0008193720132112503,
                0.026943575590848923,
                -0.0005207819631323218
            ]
        },
        {
            "name" : "Camera",
            "rotation" : [
                0.483536034822464,
                0.33687159419059753,
                -0.20870360732078552,
                0.7804827094078064
            ],
            "translation" : [
                7.358891487121582,
                4.958309173583984,
                6.925790786743164
            ]
        },
        {
            "name" : "Light",
            "rotation" : [
                0.16907575726509094,
                0.7558803558349609,
                -0.27217137813568115,
                0.570947527885437
            ],
            "translation" : [
                4.076245307922363,
                5.903861999511719,
                -1.0054539442062378
            ]
        }
    ],
    "materials" : [
        {
            "doubleSided" : true,
            "name" : "Material",
            "pbrMetallicRoughness" : {
                "baseColorFactor" : [
                    0.011134919710457325,
                    0.011134919710457325,
                    0.011134919710457325,
                    1
                ],
                "metallicFactor" : 0,
                "roughnessFactor" : 0.5
            }
        }
    ],
    "meshes" : [
        {
            "name" : "Cylinder.006",
            "primitives" : [
                {
                    "attributes" : {
                        "POSITION" : 0,
                        "NORMAL" : 1,
                        "TEXCOORD_0" : 2
                    },
                    "indices" : 3,
                    "material" : 0
                }
            ]
        },
        {
            "name" : "Text",
            "primitives" : [
                {
                    "attributes" : {
                        "POSITION" : 4,
                        "NORMAL" : 5,
                        "TEXCOORD_0" : 6
                    },
                    "indices" : 7
                }
            ]
        }
    ],
    "accessors" : [
        {
            "bufferView" : 0,
            "componentType" : 5126,
            "count" : 1371,
            "max" : [
                0.6324083805084229,
                6.321983337402344,
                0.7780884504318237
            ],
            "min" : [
                -0.5231587886810303,
                0,
                -0.8480644226074219
            ],
            "type" : "VEC3"
        },
        {
            "bufferView" : 1,
            "componentType" : 5126,
            "count" : 1371,
            "type" : "VEC3"
        },
        {
            "bufferView" : 2,
            "componentType" : 5126,
            "count" : 1371,
            "type" : "VEC2"
        },
        {
            "bufferView" : 3,
            "componentType" : 5123,
            "count" : 2538,
            "type" : "SCALAR"
        },
        {
            "bufferView" : 4,
            "componentType" : 5126,
            "count" : 180,
            "max" : [
                0.16937118768692017,
                0.8899999856948853,
                0.19709262251853943
            ],
            "min" : [
                -0.16937118768692017,
                -0.8899999856948853,
                -0.19709262251853943
            ],
            "type" : "VEC3"
        },
        {
            "bufferView" : 5,
            "componentType" : 5126,
            "count" : 180,
            "type" : "VEC3"
        },
        {
            "bufferView" : 6,
            "componentType" : 5126,
            "count" : 180,
            "type" : "VEC2"
        },
        {
            "bufferView" : 7,
            "componentType" : 5123,
            "count" : 444,
            "type" : "SCALAR"
        }
    ],
    "bufferViews" : [
        {
            "buffer" : 0,
            "byteLength" : 16452,
            "byteOffset" : 0
        },
        {
            "buffer" : 0,
            "byteLength" : 16452,
            "byteOffset" : 16452
        },
        {
            "buffer" : 0,
            "byteLength" : 10968,
            "byteOffset" : 32904
        },
        {
            "buffer" : 0,
            "byteLength" : 5076,
            "byteOffset" : 43872
        },
        {
            "buffer" : 0,
            "byteLength" : 2160,
            "byteOffset" : 48948
        },
        {
            "buffer" : 0,
            "byteLength" : 2160,
            "byteOffset" : 51108
        },
        {
            "buffer" : 0,
            "byteLength" : 1440,
            "byteOffset" : 53268
        },
        {
            "buffer" : 0,
            "byteLength" : 888,
            "byteOffset" : 54708
        }
    ],
    "buffers" : [
        {
            "byteLength" : 55596,
            "uri" : "data:application/octet-stream;base64,"
        }
    ]
}
