<?xml version="1.0" encoding="iso-8859-1"?>
<!-- Generator: Adobe Illustrator 19.0.0, SVG Export Plug-In . SVG Version: 6.00 Build 0)  -->
<svg version="1.1" id="Layer_1" xmlns="http://www.w3.org/2000/svg" xmlns:xlink="http://www.w3.org/1999/xlink" x="0px" y="0px"
	 viewBox="0 0 380.619 380.619" style="enable-background:new 0 0 380.619 380.619;" xml:space="preserve">
<g>
			<path d="M70.81,190.86h128c4.143,0,7.5-3.358,7.5-7.5c0-4.142-3.357-7.5-7.5-7.5h-128c-4.143,0-7.5,3.358-7.5,7.5
				C63.31,187.502,66.667,190.86,70.81,190.86z"/>
			<path d="M198.81,242.059h-128c-4.143,0-7.5,3.358-7.5,7.5c0,4.142,3.357,7.5,7.5,7.5h128c4.143,0,7.5-3.358,7.5-7.5
				C206.31,245.417,202.952,242.059,198.81,242.059z"/>
			<path d="M206.731,219.993H70.81c-4.143,0-7.5,3.358-7.5,7.5c0,4.142,3.357,7.5,7.5,7.5h135.922c4.143,0,7.5-3.358,7.5-7.5
				C214.232,223.351,210.874,219.993,206.731,219.993z"/>
			<path d="M215.81,197.927h-145c-4.143,0-7.5,3.358-7.5,7.5c0,4.142,3.357,7.5,7.5,7.5h145c4.143,0,7.5-3.358,7.5-7.5
				C223.31,201.285,219.952,197.927,215.81,197.927z"/>
			<path d="M377.588,224.63c-11.565-8.582-18.199-21.749-18.199-36.125v-80c0-17.92-14.579-32.5-32.5-32.5H148.46
				c-17.921,0-32.5,14.58-32.5,32.5v31.141H53.73c-17.921,0-32.5,14.58-32.5,32.5v80c0,14.375-6.634,27.542-18.199,36.125
				c-2.238,1.66-3.371,4.424-2.941,7.178c0.429,2.753,2.349,5.042,4.985,5.942c6.26,2.139,12.782,3.223,19.386,3.223
				c12.753,0,24.823-3.913,35.077-11.343h172.621c17.921,0,32.5-14.58,32.5-32.5V229.63h56.422
				c10.254,7.43,22.324,11.343,35.077,11.343c6.604,0,13.126-1.084,19.386-3.223c2.637-0.901,4.557-3.189,4.985-5.942
				C380.959,229.054,379.826,226.29,377.588,224.63z M249.66,260.771h-0.001c0,9.649-7.851,17.5-17.5,17.5H57.019
				c-1.692,0-3.334,0.572-4.66,1.624c-8.018,6.358-17.664,9.719-27.897,9.719c-0.465,0-0.931-0.007-1.395-0.021
				c8.403-10.535,13.164-23.758,13.164-37.446v-80c0-9.649,7.851-17.5,17.5-17.5H232.16c9.649,0,17.5,7.851,17.5,17.5V260.771z
				 M356.158,225.973c-10.233,0-19.88-3.361-27.897-9.719c-1.326-1.051-2.968-1.624-4.66-1.624H264.66v-21.213h45.15
				c4.143,0,7.5-3.358,7.5-7.5c0-4.142-3.357-7.5-7.5-7.5h-45.15v-6.271c0-0.266-0.014-0.53-0.021-0.794h45.171
				c4.143,0,7.5-3.358,7.5-7.5c0-4.142-3.357-7.5-7.5-7.5h-49.261c-1.448-2.594-3.238-4.971-5.314-7.066h54.575
				c4.143,0,7.5-3.358,7.5-7.5c0-4.142-3.357-7.5-7.5-7.5h-145c-3.398,0-6.265,2.261-7.187,5.36H130.96v-31.141
				c0-9.649,7.851-17.5,17.5-17.5h178.429c9.649,0,17.5,7.851,17.5,17.5v80c0,13.688,4.761,26.912,13.164,37.446
				C357.089,225.966,356.623,225.973,356.158,225.973z"/>
			<path d="M309.81,112.219h-128c-4.143,0-7.5,3.358-7.5,7.5c0,4.142,3.357,7.5,7.5,7.5h128c4.143,0,7.5-3.358,7.5-7.5
				C317.31,115.577,313.952,112.219,309.81,112.219z"/>
		</g>
</svg>
