<?xml version="1.0" ?><svg viewBox="0 0 64 64" xmlns="http://www.w3.org/2000/svg"><g id="Glyph"><g data-name="Glyph" id="Glyph-2"><path d="M57,2H11a1,1,0,0,0-1,1V6H7A1,1,0,0,0,6,7V61a1,1,0,0,0,1,1H53a1,1,0,0,0,1-1V58h3a1,1,0,0,0,1-1V3A1,1,0,0,0,57,2ZM11,15a5,5,0,0,1,5-5h2a1,1,0,0,1,0,2H16a3,3,0,0,0-3,3v2a3,3,0,0,0,3,3h2a1,1,0,0,1,0,2H16a5,5,0,0,1-5-5ZM52,60H8V26H52ZM25.5,17h-1a3.5,3.5,0,0,1,0-7H26a3,3,0,0,1,3,3,1,1,0,0,1-2,0,1,1,0,0,0-1-1H24.5a1.5,1.5,0,0,0,0,3h1a3.5,3.5,0,0,1,0,7H24a3,3,0,0,1-3-3,1,1,0,0,1,2,0,1,1,0,0,0,1,1h1.5a1.5,1.5,0,0,0,0-3ZM35,19.06l2-3.34V11a1,1,0,0,1,2,0v5a1,1,0,0,1-.14.51l-3,5a1,1,0,0,1-1.72,0l-3-5A1,1,0,0,1,31,16V11a1,1,0,0,1,2,0v4.72ZM44,15V9.41L50.59,16H45A1,1,0,0,1,44,15ZM56,56H54V17a1,1,0,0,0-.29-.71l-10-10A1,1,0,0,0,43,6H12V4H56Z"/><path d="M45,29H15a3,3,0,0,0-3,3V54a3,3,0,0,0,3,3H45a3,3,0,0,0,3-3V32A3,3,0,0,0,45,29ZM19,55H15a1,1,0,0,1-1-1V51h5Zm0-6H14V45h5Zm0-6H14V39h5ZM37,55H21V51H37Zm0-6H21V45H37Zm0-6H21V39H37Zm9,11a1,1,0,0,1-1,1H39V51h7Zm0-5H39V45h7Zm0-6H39V39h7Z"/></g></g></svg>