<svg width="440" height="67" viewBox="0 0 440 67" fill="none" xmlns="http://www.w3.org/2000/svg">
<path d="M254 28L261 34.5L254 40.5L439 34.5L254 28Z" fill="#FFD700" stroke="#FFD700"/>
<path d="M186 40.5L179 34L186 28L1 34L186 40.5Z" fill="#FFD700" stroke="#FFD700"/>
<path d="M219.212 2.04561C235.712 1.04561 246.712 16.5456 240.212 43.0456M234.212 48.5456L237.212 37.5456L237.712 33.5456L238.212 26.5456C236.694 14.8482 234.186 11.034 227.712 7.54561L217.712 6.04561L208.712 2.04561L210.212 8.54561L199.212 21.5456C198.843 23.5692 198.747 24.6661 200.712 26.5456C202.038 28.2763 203.31 28.7172 204.712 29.0456C208.239 27.8358 209.969 26.3203 212.712 24.0456C214.244 24.7166 215.398 25.365 218.212 25.0456M218.212 25.0456C220.171 23.7927 221.035 23.023 222.212 21.5456C223.321 19.536 223.517 18.4431 223.212 16.5456M218.212 25.0456C219.16 27.1031 218.815 28.326 217.712 30.5456L212.712 36.5456C207.052 41.4897 206.601 43.6173 204.212 50.0456C204.096 54.0702 206.212 60.5456 208.712 60.5456C211.212 60.5456 236.712 60.5456 236.712 60.5456" stroke="#FFD700" stroke-width="3" stroke-linecap="round" stroke-linejoin="round"/>
<path d="M203.212 64.5456H240.712" stroke="#FFD700" stroke-width="3" stroke-linecap="round" stroke-linejoin="round"/>
</svg>
