<?xml version="1.0" ?><svg viewBox="0 0 64 64" xmlns="http://www.w3.org/2000/svg"><g id="Glyph"><g data-name="Glyph" id="Glyph-2"><path d="M57,2H11a1,1,0,0,0-1,1V6H7A1,1,0,0,0,6,7V61a1,1,0,0,0,1,1H53a1,1,0,0,0,1-1V58h3a1,1,0,0,0,1-1V3A1,1,0,0,0,57,2ZM11,13a3,3,0,0,1,3-3h4a1,1,0,0,1,0,2H14a1,1,0,0,0-1,1v2h5a1,1,0,0,1,0,2H13v2a1,1,0,0,0,1,1h4a1,1,0,0,1,0,2H14a3,3,0,0,1-3-3ZM52,60H8V26H52ZM25.86,16.51a1,1,0,0,1-1.72,0L23,14.61V21a1,1,0,0,1-2,0V11a1,1,0,0,1,1.86-.51L25,14.06l2.14-3.57A1,1,0,0,1,29,11V21a1,1,0,0,1-2,0V14.61ZM38,20a1,1,0,0,1,0,2H32a1,1,0,0,1-1-1V11a1,1,0,0,1,2,0v9Zm6-5V9.41L50.59,16H45A1,1,0,0,1,44,15ZM56,56H54V17a1,1,0,0,0-.29-.71l-10-10A1,1,0,0,0,43,6H12V4H56Z"/><path d="M41.34,33H18.66a2.86,2.86,0,0,0-2.86,2.86V50.14A2.86,2.86,0,0,0,18.66,53H41.34a2.86,2.86,0,0,0,2.86-2.86V35.86A2.86,2.86,0,0,0,41.34,33Zm.86,3-8.08,6.85L42.2,49.6A1.13,1.13,0,0,1,40.76,51l-8.19-6.83L30.65,45.8a1,1,0,0,1-1.3,0l-1.92-1.63L19.24,51a1.13,1.13,0,0,1-1.44-1.4l8.08-6.74L17.8,36a.89.89,0,0,1,.86-1h1.05L30,43.72,40.29,35h1.05A.89.89,0,0,1,42.2,36Z"/></g></g></svg>