<?xml version="1.0" ?><svg viewBox="0 0 64 64" xmlns="http://www.w3.org/2000/svg"><g id="Glyph"><g data-name="Glyph" id="Glyph-2"><path d="M44.08,50.83a4.08,4.08,0,0,0-3.54-2H35.82l-4.68-8.86,2.44-4.22a4.13,4.13,0,1,0-7.16,0l2.44,4.22L24.18,48.8H19.46A4.1,4.1,0,1,0,23,54.92l2.34-4.12h9.26L37,54.92a4.1,4.1,0,1,0,7.11-4.09Zm-22.79,3.1a2.1,2.1,0,1,1-1.83-3.13h3.61Zm6.87-19.21a2.13,2.13,0,1,1,3.68,0L30,37.92ZM26.44,48.8,30,42.06l3.56,6.74Zm15.92,5.13a2.09,2.09,0,0,1-3.65,0L36.93,50.8h3.61a2.08,2.08,0,0,1,1.81,1A2.06,2.06,0,0,1,42.36,53.93Z"/><path d="M57,2H11a1,1,0,0,0-1,1V6H7A1,1,0,0,0,6,7V61a1,1,0,0,0,1,1H53a1,1,0,0,0,1-1V58h3a1,1,0,0,0,1-1V3A1,1,0,0,0,57,2ZM45,16a1,1,0,0,1-1-1V9.41L50.59,16ZM11,21V11a1,1,0,0,1,1-1h3.5a3.5,3.5,0,0,1,0,7H13v4a1,1,0,0,1-2,0Zm10,0V11a1,1,0,0,1,1-1h2a5,5,0,0,1,5,5v2a5,5,0,0,1-5,5H22A1,1,0,0,1,21,21Zm16-6a1,1,0,0,1,0,2H33v4a1,1,0,0,1-2,0V11a1,1,0,0,1,1-1h6a1,1,0,0,1,0,2H33v3ZM52,60H8V26H52Zm4-4H54V17a1,1,0,0,0-.29-.71l-10-10A1,1,0,0,0,43,6H12V4H56Z"/><path d="M27,15v2a3,3,0,0,1-3,3H23V12h1A3,3,0,0,1,27,15Z"/><path d="M17,13.5A1.5,1.5,0,0,1,15.5,15H13V12h2.5A1.5,1.5,0,0,1,17,13.5Z"/></g></g></svg>